<svg xmlns="http://www.w3.org/2000/svg" viewBox="0 0 600 450" width="100%" height="100%">
  <svg xmlns="http://www.w3.org/2000/svg" viewBox="0 0 600 450" width="100%" height="100%">
  <rect width="600" height="450" fill="#0f172a"/>
  <text x="300" y="36" font-family="'Outfit', sans-serif" font-size="14" font-weight="bold" fill="#f8fafc" text-anchor="middle">LINEWEAVER-BURK DOUBLE RECIPROCAL PLOT (1/V vs 1/[S])</text>
  
  <!-- Axes -->
  <!-- X-Axis (1/[S]) -->
  <line x1="60" y1="360" x2="540" y2="360" stroke="#94a3b8" stroke-width="2.5"/>
  <polygon points="545,360 535,355 535,365" fill="#94a3b8"/>
  <text x="500" y="390" font-family="'Courier New', monospace" font-size="13" font-weight="bold" fill="#94a3b8">1 / [S]</text>

  <!-- Y-Axis (1/V) -->
  <line x1="220" y1="410" x2="220" y2="60" stroke="#94a3b8" stroke-width="2.5"/>
  <polygon points="220,55 215,65 225,65" fill="#94a3b8"/>
  <text x="160" y="80" font-family="'Courier New', monospace" font-size="13" font-weight="bold" fill="#94a3b8">1 / V</text>

  <!-- Origin (0,0) -->
  <text x="205" y="380" font-family="'Courier New', monospace" font-size="11" fill="#64748b">0</text>

  <!-- Control Line (No Inhibitor) - Blue Line -->
  <!-- Crosses Y-axis at (220, 200) and X-axis at (100, 360) -->
  <line x1="80" y1="386" x2="480" y2="70" stroke="#38bdf8" stroke-width="3.5" stroke-linecap="round"/>
  <!-- Point on Y-axis (1/Vmax) -->
  <circle cx="220" cy="200" r="5" fill="#f8fafc" stroke="#38bdf8" stroke-width="2"/>
  <!-- Point on X-axis (-1/Km) -->
  <circle cx="100" cy="360" r="5" fill="#f8fafc" stroke="#38bdf8" stroke-width="2"/>

  <!-- Inhibitor Line (+ Inhibitor) - Coral Line -->
  <!-- Crosses SAME Y-axis at (220, 200) and X-axis shifted right to (150, 360) -->
  <line x1="130" y1="405" x2="440" y2="60" stroke="#f43f5e" stroke-width="3.5" stroke-linecap="round"/>
  <!-- Point on X-axis with Inhibitor (-1/Km') -->
  <circle cx="150" cy="360" r="5" fill="#f8fafc" stroke="#f43f5e" stroke-width="2"/>

  <!-- Legend -->
  <g transform="translate(380, 110)">
    <rect width="180" height="70" rx="8" fill="#1e293b" stroke="#334155" stroke-width="1.5"/>
    <line x1="15" y1="25" x2="45" y2="25" stroke="#38bdf8" stroke-width="3"/>
    <text x="55" y="29" font-family="'Outfit', sans-serif" font-size="12" font-weight="bold" fill="#e2e8f0">Curve A (Control)</text>
    
    <line x1="15" y1="50" x2="45" y2="50" stroke="#f43f5e" stroke-width="3"/>
    <text x="55" y="54" font-family="'Outfit', sans-serif" font-size="12" font-weight="bold" fill="#e2e8f0">Curve B (+ Drug X)</text>
  </g>

  <g font-family="'Outfit', sans-serif" font-size="11" font-weight="bold" fill="#fef08a">
    <!-- Intersection Annotation -->
    <path d="M 230 195 L 300 170" stroke="#fef08a" stroke-width="1.5" stroke-dasharray="3,2"/>
    <text x="305" y="170">Y-intercept unchanged = 1/Vmax constant (Vmax unchanged)</text>

    <!-- X-intercept shift Annotation -->
    <path d="M 125 365 L 125 410" stroke="#fef08a" stroke-width="1.5" stroke-dasharray="3,2"/>
    <text x="50" y="425">X-intercept shifts right toward zero = Km increased (Affinity decreased)</text>
    
    <text x="300" y="320" fill="#34d399" font-size="13">Classic Hallmark: Competitive Inhibition (Overcome by high [S])</text>
  </g>
</svg>