<svg xmlns="http://www.w3.org/2000/svg" viewBox="0 0 500 400" width="100%" height="100%">
  <!-- Lymph node background with mixed inflammatory infiltrate -->
  <rect width="500" height="400" fill="#312e81"/>
  <circle cx="250" cy="200" r="185" fill="#4338ca" stroke="#0f172a" stroke-width="12"/>
  <text x="250" y="32" font-family="'Courier New', monospace" font-size="12" font-weight="bold" fill="#f8fafc" text-anchor="middle">LYMPH NODE BIOPSY · H&amp;E SECTION (400x HIGH POWER FIELD)</text>

  <!-- Small background lymphocytes (blue dots) and eosinophils (pink dots) -->
  <g fill="#1e1b4b" opacity="0.6">
    <circle cx="120" cy="120" r="10"/><circle cx="145" cy="110" r="9"/><circle cx="110" cy="150" r="11"/>
    <circle cx="370" cy="130" r="10"/><circle cx="390" cy="160" r="9"/><circle cx="360" cy="180" r="10"/>
    <circle cx="130" cy="270" r="10"/><circle cx="160" cy="290" r="9"/><circle cx="120" cy="310" r="11"/>
    <circle cx="360" cy="280" r="10"/><circle cx="380" cy="300" r="9"/><circle cx="340" cy="320" r="10"/>
  </g>

  <!-- Giant Binucleated Reed-Sternberg Cell (Abundant pale amphophilic cytoplasm) -->
  <ellipse cx="250" cy="200" rx="90" ry="70" fill="#a855f7" opacity="0.5" stroke="#c084fc" stroke-width="2"/>

  <!-- Left Nucleus with prominent eosinophilic inclusion-like nucleolus & clear halo -->
  <ellipse cx="215" cy="195" rx="30" ry="36" fill="#1e1b4b" stroke="#7e22ce" stroke-width="2.5"/>
  <circle cx="215" cy="195" r="18" fill="#581c87"/>
  <circle cx="215" cy="195" r="9" fill="#f43f5e"/> <!-- Inclusion-like nucleolus -->

  <!-- Right Nucleus (Mirror image / Owl-Eye appearance) -->
  <ellipse cx="285" cy="195" rx="30" ry="36" fill="#1e1b4b" stroke="#7e22ce" stroke-width="2.5"/>
  <circle cx="285" cy="195" r="18" fill="#581c87"/>
  <circle cx="285" cy="195" r="9" fill="#f43f5e"/> <!-- Inclusion-like nucleolus -->
</svg>